<?xml version="1.0" encoding="utf-8"?>
<!-- Generator: Adobe Illustrator 26.0.0, SVG Export Plug-In . SVG Version: 6.00 Build 0)  -->
<svg version="1.1" id="Layer_1" xmlns="http://www.w3.org/2000/svg" xmlns:xlink="http://www.w3.org/1999/xlink" x="0px" y="0px"
	 viewBox="0 0 1920 1080" style="enable-background:new 0 0 1920 1080;" xml:space="preserve">
<style type="text/css">
	.st0{clip-path:url(#SVGID_00000006709365909597366090000008361557706868440964_);}
	.st1{fill-rule:evenodd;clip-rule:evenodd;fill:#9E9E9E;fill-opacity:0;}
	.st2{fill-rule:evenodd;clip-rule:evenodd;fill-opacity:0;}
	.st3{fill:none;stroke:#851F82;stroke-linejoin:round;stroke-miterlimit:10;stroke-dasharray:1,3;}
	.st4{fill-rule:evenodd;clip-rule:evenodd;fill:#F29200;}
	.st5{fill-rule:evenodd;clip-rule:evenodd;fill:#851F82;}
</style>
<g>
	<g>
		<defs>
			<rect id="SVGID_1_" x="-226" y="-236.5" width="2404.2" height="1352.3"/>
		</defs>
		<clipPath id="SVGID_00000044152717407383202270000017918146923598042031_">
			<use xlink:href="#SVGID_1_"  style="overflow:visible;"/>
		</clipPath>
		<g style="clip-path:url(#SVGID_00000044152717407383202270000017918146923598042031_);">
			<path class="st1" d="M-226-236.5h2404.2v1352.3H-226V-236.5z"/>
			<path class="st2" d="M543.2,592.6L543.2,592.6c0-163,166.9-295.1,372.9-295.1l0,0c206,0,372.9,132.1,372.9,295.1l0,0
				c0,163-166.9,295.1-372.9,295.1l0,0C710.1,887.9,543.2,755.6,543.2,592.6z"/>
			<path class="st3" d="M543.2,592.6L543.2,592.6c0-163,166.9-295.1,372.9-295.1l0,0c206,0,372.9,132.1,372.9,295.1l0,0
				c0,163-166.9,295.1-372.9,295.1l0,0C710.1,887.9,543.2,755.6,543.2,592.6z"/>
			<path class="st2" d="M1289,583.2L1289,583.2c0-125.2,75.8-226.8,169.2-226.8l0,0c44.8,0,87.9,23.9,119.7,66.4
				c31.7,42.6,49.6,100.2,49.6,160.3l0,0c0,125.2-75.8,226.8-169.2,226.8l0,0C1364.8,810,1289,708.4,1289,583.2z"/>
			<path class="st3" d="M1289,583.2L1289,583.2c0-125.2,75.8-226.8,169.2-226.8l0,0c44.8,0,87.9,23.9,119.7,66.4
				c31.7,42.6,49.6,100.2,49.6,160.3l0,0c0,125.2-75.8,226.8-169.2,226.8l0,0C1364.8,810,1289,708.4,1289,583.2z"/>
			<path class="st4" d="M109.6,592.7L109.6,592.7c0-59.9,48.6-108.4,108.4-108.4l0,0c28.8,0,56.3,11.4,76.6,31.8
				c20.3,20.3,31.8,48,31.8,76.6l0,0c0,59.9-48.6,108.4-108.4,108.4l0,0C158.2,701,109.6,652.6,109.6,592.7z"/>
			<path class="st4" d="M326.5,592.7L326.5,592.7c0-59.9,48.6-108.4,108.4-108.4l0,0c28.8,0,56.3,11.4,76.6,31.8
				c20.3,20.3,31.8,48,31.8,76.6l0,0c0,59.9-48.6,108.4-108.4,108.4l0,0C374.9,701,326.5,652.6,326.5,592.7z"/>
			<path class="st4" d="M543.2,592.7L543.2,592.7c0-59.9,48.6-108.4,108.4-108.4l0,0c28.8,0,56.3,11.4,76.6,31.8
				c20.3,20.3,31.8,48,31.8,76.6l0,0c0,59.9-48.6,108.4-108.4,108.4l0,0C591.8,701,543.2,652.6,543.2,592.7z"/>
			<path class="st4" d="M760.1,592.7L760.1,592.7c0-59.9,48.6-108.4,108.4-108.4l0,0c28.8,0,56.3,11.4,76.6,31.8
				c20.3,20.3,31.8,48,31.8,76.6l0,0c0,59.9-48.6,108.4-108.4,108.4l0,0C808.5,701,760.1,652.6,760.1,592.7z"/>
			<path class="st4" d="M977,592.7L977,592.7c0-59.9,48.6-108.4,108.4-108.4l0,0c28.8,0,56.3,11.4,76.6,31.8
				c20.3,20.3,31.8,48,31.8,76.6l0,0c0,59.9-48.6,108.4-108.4,108.4l0,0C1025.4,701,977,652.6,977,592.7z"/>
			<path class="st5" d="M1193.7,592.7L1193.7,592.7c0-59.9,48.6-108.4,108.4-108.4l0,0c28.8,0,56.3,11.4,76.6,31.8
				c20.3,20.3,31.8,48,31.8,76.6l0,0c0,59.9-48.6,108.4-108.4,108.4l0,0C1242.3,701,1193.7,652.6,1193.7,592.7z"/>
			<path class="st4" d="M1410.6,592.7L1410.6,592.7c0-59.9,48.6-108.4,108.4-108.4l0,0c28.8,0,56.3,11.4,76.6,31.8
				c20.3,20.3,31.8,48,31.8,76.6l0,0c0,59.9-48.6,108.4-108.4,108.4l0,0C1459.1,701,1410.6,652.6,1410.6,592.7z"/>
			<path class="st4" d="M1627.3,592.7L1627.3,592.7c0-59.9,48.6-108.4,108.4-108.4l0,0c28.8,0,56.3,11.4,76.6,31.8
				c20.3,20.3,31.8,48,31.8,76.6l0,0c0,59.9-48.6,108.4-108.4,108.4l0,0C1675.9,701,1627.3,652.6,1627.3,592.7z"/>
		</g>
	</g>
</g>
</svg>
